<?xml version="1.0" encoding="iso-8859-1"?>
<!-- Generator: Adobe Illustrator 21.0.0, SVG Export Plug-In . SVG Version: 6.00 Build 0)  -->
<svg version="1.1" id="&#x56FE;&#x5C42;_1" xmlns="http://www.w3.org/2000/svg" xmlns:xlink="http://www.w3.org/1999/xlink" x="0px"
	 y="0px" viewBox="0 0 128 128" style="enable-background:new 0 0 128 128;" xml:space="preserve">
<g>
	<g>
		<defs>
			<rect id="SVGID_1_" x="3.16" y="3.08" width="121.68" height="121.84"/>
		</defs>
		<clipPath id="SVGID_2_">
			<use xlink:href="#SVGID_1_"  style="overflow:visible;"/>
		</clipPath>
		<path style="clip-path:url(#SVGID_2_);fill:#FFFFFF;" d="M53.722,46.545V28.231h20.43v18.314l11.454-11.454
			c3.99-3.989,3.99-10.457,0-14.446L71.16,6.199c-3.989-3.989-10.457-3.989-14.446,0L42.268,20.645
			c-3.99,3.989-3.99,10.457,0,14.446L53.722,46.545z M28.184,74.198v-20.43h18.315L35.044,42.314
			c-3.989-3.989-10.456-3.989-14.446,0L6.152,56.76c-3.989,3.989-3.989,10.457,0,14.446l14.446,14.446
			c3.989,3.99,10.457,3.99,14.446,0l11.454-11.454L28.184,74.198L28.184,74.198z M74.152,81.421v18.315h-20.43V81.421L42.267,92.876
			c-3.989,3.989-3.989,10.457,0,14.446l14.446,14.446c3.989,3.99,10.457,3.99,14.446,0l14.446-14.446
			c3.99-3.99,3.99-10.457,0-14.446L74.152,81.421z M121.721,56.76l-14.446-14.446c-3.99-3.989-10.457-3.989-14.446,0L81.375,53.768
			h18.315v20.43H81.375l11.455,11.454c3.989,3.99,10.456,3.99,14.446,0l14.446-14.446C125.71,67.218,125.71,60.749,121.721,56.76
			L121.721,56.76z M121.721,56.76"/>
	</g>
</g>
</svg>
