<?xml version="1.0" encoding="iso-8859-1"?>
<!-- Generator: Adobe Illustrator 21.0.0, SVG Export Plug-In . SVG Version: 6.00 Build 0)  -->
<svg version="1.1" id="&#x56FE;&#x5C42;_1" xmlns="http://www.w3.org/2000/svg" xmlns:xlink="http://www.w3.org/1999/xlink" x="0px"
	 y="0px" viewBox="0 0 128 128" style="enable-background:new 0 0 128 128;" xml:space="preserve">
<g>
	<path style="fill:#FFFFFF;" d="M69.584,128H17.36C9.168,128,2,120.832,2,112.64V15.36C2,7.168,9.168,0,17.36,0h87.04
		c8.192,0,15.36,7.168,15.36,15.36v49.152c0,3.073-2.048,5.12-5.12,5.12c-3.072,0-5.119-2.048-5.119-5.12V15.36
		c0-2.048-2.049-5.12-5.12-5.12H17.36c-2.048,0-5.12,3.072-5.12,5.12v97.28c0,3.072,3.072,5.12,5.12,5.12h52.224
		c3.072,0,5.12,2.048,5.12,5.119C74.704,125.952,72.656,128,69.584,128L69.584,128z M69.584,128"/>
	<path style="fill:#FFFFFF;" d="M94.16,50.176H26.576c-3.072,0-5.12-2.048-5.12-5.12c0-3.072,2.048-5.12,5.12-5.12H94.16
		c3.072,0,5.119,2.048,5.119,5.12C99.28,48.128,97.232,50.176,94.16,50.176L94.16,50.176z M94.16,30.72H26.576
		c-3.072,0-5.12-2.049-5.12-5.12c0-3.072,2.048-5.12,5.12-5.12H94.16c3.072,0,5.119,2.049,5.119,5.12
		C99.28,28.672,97.232,30.72,94.16,30.72L94.16,30.72z M94.16,30.72"/>
	<path style="fill:#FFFFFF;" d="M22.48,65.536c0,1.463,0.781,2.816,2.049,3.548c1.267,0.731,2.829,0.731,4.096,0
		c1.267-0.732,2.048-2.084,2.048-3.548c0-1.463-0.78-2.816-2.048-3.547c-1.267-0.732-2.829-0.732-4.096,0
		C23.261,62.72,22.48,64.073,22.48,65.536L22.48,65.536z M22.48,65.536"/>
	<path style="fill:#FFFFFF;" d="M36.816,65.536c0,1.463,0.781,2.816,2.048,3.548c1.267,0.731,2.829,0.731,4.096,0
		c1.267-0.732,2.048-2.084,2.048-3.548c0-1.463-0.78-2.816-2.048-3.547c-1.267-0.732-2.829-0.732-4.096,0
		C37.597,62.72,36.816,64.073,36.816,65.536L36.816,65.536z M36.816,65.536"/>
	<path style="fill:#FFFFFF;" d="M52.176,65.536c0,1.463,0.781,2.816,2.048,3.548c1.267,0.731,2.828,0.731,4.096,0
		c1.267-0.732,2.048-2.084,2.048-3.548c0-1.463-0.78-2.816-2.048-3.547c-1.268-0.732-2.829-0.732-4.096,0
		C52.957,62.72,52.176,64.073,52.176,65.536L52.176,65.536z M52.176,65.536"/>
	<g>
		<defs>
			<rect id="SVGID_1_" x="2" width="124.6" height="128"/>
		</defs>
		<clipPath id="SVGID_2_">
			<use xlink:href="#SVGID_1_"  style="overflow:visible;"/>
		</clipPath>
		<path style="clip-path:url(#SVGID_2_);fill:#FFFFFF;" d="M91.088,117.76c-13.312,0-24.576-11.264-24.576-24.576
			c0-13.313,11.264-24.577,24.576-24.577c13.312,0,24.576,11.264,24.576,24.577C115.664,106.496,104.4,117.76,91.088,117.76
			L91.088,117.76z M91.088,78.848c-8.192,0-14.336,6.145-14.336,14.337c0,8.191,6.144,14.336,14.336,14.336
			c8.191,0,14.336-6.145,14.336-14.336C105.424,84.992,99.28,78.848,91.088,78.848L91.088,78.848z M91.088,78.848"/>
		<path style="clip-path:url(#SVGID_2_);fill:#FFFFFF;" d="M121.808,128c-1.023,0-3.072,0-4.096-1.024l-14.336-14.336
			c-2.048-2.048-2.048-5.119,0-7.168c2.048-2.048,5.12-2.048,7.168,0l14.336,14.336c2.049,2.048,2.049,5.12,0,7.168
			C124.88,128,122.832,128,121.808,128L121.808,128z M121.808,128"/>
	</g>
</g>
</svg>
