<?xml version="1.0" encoding="iso-8859-1"?>
<!-- Generator: Adobe Illustrator 21.0.0, SVG Export Plug-In . SVG Version: 6.00 Build 0)  -->
<svg version="1.1" id="&#x56FE;&#x5C42;_1" xmlns="http://www.w3.org/2000/svg" xmlns:xlink="http://www.w3.org/1999/xlink" x="0px"
	 y="0px" viewBox="0 0 128 128" style="enable-background:new 0 0 128 128;" xml:space="preserve">
<g>
	<g>
		<defs>
			<rect id="SVGID_1_" x="0.889" y="4.075" width="126.222" height="119.85"/>
		</defs>
		<clipPath id="SVGID_2_">
			<use xlink:href="#SVGID_1_"  style="overflow:visible;"/>
		</clipPath>
		<path style="clip-path:url(#SVGID_2_);fill:#FFFFFF;" d="M15.849,115.217H7.3V12.636c0-4.721,3.828-8.548,8.549-8.548h51.29
			c4.721,0,8.548,3.827,8.548,8.548v102.581h-8.548V12.636h-51.29V115.217z M109.881,59.653h8.548v55.564h-8.548V59.653z
			 M5.164,123.765c-2.361,0-4.275-1.914-4.275-4.275c0-2.36,1.914-4.274,4.275-4.274h113.265c2.36,0,4.274,1.914,4.274,4.274
			c0,2.361-1.914,4.275-4.274,4.275H5.164z M124.259,59.943c2.2,0.86,3.287,3.34,2.428,5.54c-0.86,2.2-3.34,3.287-5.54,2.427
			L69.832,47.877c-2.167-0.879-3.226-3.337-2.376-5.515c0.85-2.178,3.294-3.269,5.483-2.448l51.324,20.029H124.259z M88.561,73.813
			c2.361,0,4.275,1.914,4.275,4.274c0,2.361-1.914,4.275-4.275,4.275H71.379c-2.36,0-4.274-1.914-4.274-4.275
			c0-2.36,1.914-4.274,4.274-4.274H88.561z M88.561,90.909c2.361,0,4.275,1.914,4.275,4.274c0,2.36-1.914,4.274-4.275,4.274H71.379
			c-2.36,0-4.274-1.914-4.274-4.274c0-2.361,1.914-4.274,4.274-4.274H88.561z M37.22,72.475c0,2.36-1.914,4.274-4.275,4.274
			s-4.275-1.914-4.275-4.274v-8.549c0-2.36,1.914-4.274,4.275-4.274s4.275,1.914,4.275,4.274V72.475z M37.22,42.555
			c0,2.361-1.914,4.275-4.275,4.275s-4.275-1.914-4.275-4.275v-8.548c0-2.36,1.914-4.274,4.275-4.274s4.275,1.914,4.275,4.274
			V42.555z M54.316,42.555c0,2.361-1.914,4.275-4.275,4.275c-2.36,0-4.274-1.914-4.274-4.275v-8.548c0-2.36,1.914-4.274,4.274-4.274
			c2.361,0,4.275,1.914,4.275,4.274V42.555z M54.316,72.475c0,2.36-1.914,4.274-4.275,4.274c-2.36,0-4.274-1.914-4.274-4.274v-8.549
			c0-2.36,1.914-4.274,4.274-4.274c2.361,0,4.275,1.914,4.275,4.274V72.475z M37.22,119.491h-8.549V90.909h26.928v28.581H47.05
			V99.457h-9.83V119.491z M37.22,119.491"/>
	</g>
</g>
</svg>
