<?xml version="1.0" encoding="iso-8859-1"?>
<!-- Generator: Adobe Illustrator 21.0.0, SVG Export Plug-In . SVG Version: 6.00 Build 0)  -->
<svg version="1.1" id="&#x56FE;&#x5C42;_1" xmlns="http://www.w3.org/2000/svg" xmlns:xlink="http://www.w3.org/1999/xlink" x="0px"
	 y="0px" viewBox="0 0 128 128" style="enable-background:new 0 0 128 128;" xml:space="preserve">
<g>
	<g>
		<g>
			<circle style="fill:#FFFFFF;" cx="64" cy="23.577" r="19.466"/>
		</g>
		<g>
			<path style="fill:#FFFFFF;" d="M97.371,77.531c-2.664,0-4.825-2.16-4.825-4.825C92.546,56.966,79.741,44.16,64,44.16
				S35.454,56.966,35.454,72.707c0,2.664-2.16,4.825-4.825,4.825s-4.825-2.16-4.825-4.825c0-21.061,17.135-38.196,38.196-38.196
				s38.196,17.135,38.196,38.196C102.196,75.371,100.036,77.531,97.371,77.531z"/>
		</g>
	</g>
	<g>
		<path style="fill:#FFFFFF;" d="M120.477,69.209H7.523c-2.664,0-4.825-2.16-4.825-4.825c0-2.664,2.16-4.825,4.825-4.825h112.954
			c2.665,0,4.825,2.16,4.825,4.825C125.302,67.049,123.142,69.209,120.477,69.209z"/>
	</g>
	<g>
		<g>
			<path style="fill:#FFFFFF;" d="M109.008,64.384H18.992c-1.789,0-3.24,1.45-3.24,3.24v53.026c0,1.789,1.45,3.24,3.24,3.24h90.015
				c1.789,0,3.24-1.45,3.24-3.24V67.624C112.247,65.834,110.797,64.384,109.008,64.384z M81.398,99.402H70.069v11.329H57.931V99.402
				H46.602V87.263h11.329V75.934h12.138v11.329h11.329V99.402z"/>
		</g>
	</g>
</g>
</svg>
