<?xml version="1.0" encoding="iso-8859-1"?>
<!-- Generator: Adobe Illustrator 21.0.0, SVG Export Plug-In . SVG Version: 6.00 Build 0)  -->
<svg version="1.1" id="&#x56FE;&#x5C42;_1" xmlns="http://www.w3.org/2000/svg" xmlns:xlink="http://www.w3.org/1999/xlink" x="0px"
	 y="0px" viewBox="0 0 128 128" style="enable-background:new 0 0 128 128;" xml:space="preserve">
<g>
	<g>
		<defs>
			<rect id="SVGID_1_" x="1.221" y="8.782" width="124.779" height="111.178"/>
		</defs>
		<clipPath id="SVGID_2_">
			<use xlink:href="#SVGID_1_"  style="overflow:visible;"/>
		</clipPath>
		<path style="clip-path:url(#SVGID_2_);fill:#FFFFFF;" d="M100.966,32.129c-1.865-1.094-4.073-0.031-5.714,1.764L71.177,56.216
			L52.148,42.449c-2.094-1.354-2.911-2.09-4.719-1.724c-0.343,0.046-0.663,0.147-0.982,0.282c-0.069,0.035-0.145,0.031-0.218,0.065
			c-0.064,0.031-0.099,0.093-0.164,0.129c-0.282,0.162-0.528,0.355-0.764,0.587c-0.221,0.2-0.416,0.426-0.583,0.672
			c-0.038,0.058-0.095,0.088-0.13,0.151L25.104,66.269c-1.077,1.91-0.438,4.345,1.428,5.446c1.861,1.098,3.766,0.456,5.32-1.461
			l17.187-20.864l18.027,13.218c0.978,0.821,1.784,1.422,2.487,1.887c1.622,1.07,3.37,0.415,5.167-1.345l27.28-25.301
			C104.083,35.711,102.826,33.219,100.966,32.129L100.966,32.129z M122.009,8.942H5.094c-2.151,0-3.894,1.77-3.894,3.955
			c0,2.191,1.743,3.961,3.894,3.961h3.897v71.237c0,4.375,3.49,7.916,7.798,7.916h33.659L40.75,114.15
			c-1.195,1.797-0.487,4.101,1.583,5.141c2.073,1.032,4.719,0.421,5.918-1.379l10.824-20.246c0.35-0.526,0.491-1.085,0.529-1.655
			H67.5c0.038,0.568,0.183,1.128,0.528,1.655l10.824,20.246c1.199,1.801,3.848,2.411,5.918,1.379
			c2.071-1.04,2.778-3.344,1.583-5.141l-9.697-18.139h33.662c4.305,0,7.794-3.541,7.794-7.916V16.858h3.897
			c2.15,0,3.897-1.77,3.897-3.961C125.907,10.712,124.16,8.942,122.009,8.942L122.009,8.942z M110.318,84.138
			c0,2.187-1.747,3.958-3.897,3.958H20.686c-2.155,0-3.897-1.771-3.897-3.958V16.866h3.855c0.012,0,0.027-0.008,0.042-0.008h85.735
			c0.011,0,0.027,0.008,0.038,0.008h3.859V84.138z M110.318,84.138"/>
	</g>
</g>
</svg>
