<?xml version="1.0" encoding="iso-8859-1"?>
<!-- Generator: Adobe Illustrator 21.0.0, SVG Export Plug-In . SVG Version: 6.00 Build 0)  -->
<svg version="1.1" id="&#x56FE;&#x5C42;_1" xmlns="http://www.w3.org/2000/svg" xmlns:xlink="http://www.w3.org/1999/xlink" x="0px"
	 y="0px" viewBox="0 0 128 128" style="enable-background:new 0 0 128 128;" xml:space="preserve">
<path style="fill:#FFFFFF;" d="M64,10.521L1,61.675h24.084v48.829c0,3.836,3.002,6.976,6.671,6.976h64.49
	c3.669,0,6.671-3.139,6.671-6.976V61.675H127L64,10.521z M63.741,104.652c-3.24,0-22.291-11.925-22.291-27.101
	c0-7.784,6.034-14.093,13.478-14.093c3.494,0,6.936,2.596,9.331,4.878c2.395-2.282,5.319-4.878,8.813-4.878
	c7.444,0,13.478,6.309,13.478,14.093C86.55,92.727,66.981,104.652,63.741,104.652z"/>
</svg>
