<?xml version="1.0" encoding="iso-8859-1"?>
<!-- Generator: Adobe Illustrator 21.0.0, SVG Export Plug-In . SVG Version: 6.00 Build 0)  -->
<svg version="1.1" id="&#x56FE;&#x5C42;_1" xmlns="http://www.w3.org/2000/svg" xmlns:xlink="http://www.w3.org/1999/xlink" x="0px"
	 y="0px" viewBox="0 0 128 128" style="enable-background:new 0 0 128 128;" xml:space="preserve">
<g>
	<g>
		<defs>
			<rect id="SVGID_1_" x="3" y="2.935" width="122" height="122.131"/>
		</defs>
		<clipPath id="SVGID_2_">
			<use xlink:href="#SVGID_1_"  style="overflow:visible;"/>
		</clipPath>
		<path style="clip-path:url(#SVGID_2_);fill:#FFFFFF;" d="M86.584,44.844H71.787l10.284-13.933
			c0.872-1.169,1.015-2.689,0.376-3.985c-0.64-1.296-1.965-2.173-3.477-2.299c-1.512-0.127-2.981,0.516-3.853,1.686L62.021,44.496
			L47.668,26.174c-1.43-1.751-4.097-2.078-5.956-0.732c-1.859,1.347-2.207,3.857-0.777,5.608l10.95,13.933H38.494
			c-2.35,0-4.254,1.793-4.254,4.006c0,2.212,1.905,4.006,4.254,4.006h19.088v8.36H40.787c-1.519,0-2.924,0.763-3.684,2.003
			c-0.76,1.24-0.76,2.766,0,4.006c0.76,1.239,2.165,2.003,3.684,2.003h16.794v20.9c0,2.212,1.905,4.006,4.254,4.006
			s4.254-1.793,4.254-4.006v-20.9h18.275c2.35,0,4.254-1.793,4.254-4.006c0-2.212-1.905-4.006-4.254-4.006H66.016v-8.499h20.568
			c2.35,0,4.254-1.794,4.254-4.006C90.839,46.638,88.934,44.844,86.584,44.844L86.584,44.844z M86.584,44.844"/>
		<path style="clip-path:url(#SVGID_2_);fill:#FFFFFF;" d="M18.899,114.951c-3.809,0-6.897-3.411-6.897-7.619V20.596
			c0-4.207,3.088-7.619,6.897-7.619h90.071c3.809,0,6.897,3.412,6.897,7.619v46.488c0,2.419,2.32,4.08,4.51,4.08
			c2.19,0,4.51-1.661,4.51-4.08V19.393c0-9.047-6.639-16.381-14.828-16.381H17.81c-8.189,0-14.828,7.334-14.828,16.381v89.143
			c0,9.047,6.639,16.381,14.828,16.381h60.431c2.19,0,3.694-2.563,3.694-4.983s-1.504-4.983-3.694-4.983H18.899z M18.899,114.951"/>
	</g>
	<path style="fill:#FFFFFF;" d="M90,96.728l11.204-11.812c1.492-1.572,1.522-4.153,0.066-5.764
		c-1.456-1.611-3.846-1.643-5.339-0.071L78.401,97.582c-0.754,0.766-1.182,1.835-1.182,2.953c0,1.118,0.428,2.187,1.182,2.953
		l17.135,18.929c1.456,1.611,3.846,1.643,5.338,0.071c1.493-1.572,1.522-4.153,0.066-5.764l-10.808-11.884h30.966
		c2.093,0,3.789-1.832,3.789-4.092c0-2.259-1.697-4.092-3.789-4.092L90,96.728z M90,96.728"/>
</g>
</svg>
