<?xml version="1.0" encoding="iso-8859-1"?>
<!-- Generator: Adobe Illustrator 21.0.0, SVG Export Plug-In . SVG Version: 6.00 Build 0)  -->
<svg version="1.1" id="&#x56FE;&#x5C42;_1" xmlns="http://www.w3.org/2000/svg" xmlns:xlink="http://www.w3.org/1999/xlink" x="0px"
	 y="0px" viewBox="0 0 128 128" style="enable-background:new 0 0 128 128;" xml:space="preserve">
<g>
	<g>
		<g>
			<defs>
				<rect id="SVGID_1_" x="4.715" y="2" width="120.24" height="124.903"/>
			</defs>
			<clipPath id="SVGID_2_">
				<use xlink:href="#SVGID_1_"  style="overflow:visible;"/>
			</clipPath>
		</g>
	</g>
	<g>
		<g>
			<defs>
				<rect id="SVGID_3_" x="4.715" y="2" width="120.24" height="124.903"/>
			</defs>
			<clipPath id="SVGID_4_">
				<use xlink:href="#SVGID_3_"  style="overflow:visible;"/>
			</clipPath>
			<path style="clip-path:url(#SVGID_4_);fill:#FFFFFF;" d="M120.601,102.308h-27.91c-0.736,0-1.469,0.199-2.123,0.579
				l-26.038,15.541h-39.08c-3.152-0.008-5.703-2.565-5.705-5.717v-2.458c0-3.153,2.56-5.717,5.705-5.717h18.518
				c0.432,1.281,1.146,2.443,2.089,3.402l0.816,0.819c1.649,1.655,3.891,2.585,6.227,2.582c2.247,0,4.39-0.849,5.957-2.319
				l21.968-16.747c1.82-1.404,2.171-4.011,0.789-5.848c-1.357-1.782-4.089-2.135-5.829-0.778l-22.167,16.901l-0.365,0.324
				c-0.24,0.236-0.443,0.236-0.676,0.011l-0.827-0.827c-0.087-0.087-0.134-0.205-0.132-0.327c0-0.079,0.015-0.218,0.105-0.308
				l34.464-33.796h34.217c2.217-0.115,3.955-1.946,3.955-4.166s-1.738-4.051-3.955-4.166h-10.546
				c0.147-1.638,0.214-3.059,0.214-4.412c0-29.113-23.678-52.799-52.783-52.799C28.381,2.078,4.696,25.76,4.696,54.873
				c0,10.448,4.273,26.268,12.196,35.01c1.48,1.646,4.216,1.8,5.886,0.308c1.698-1.549,1.833-4.177,0.304-5.893
				c-6.208-6.852-10.05-20.611-10.05-29.425c0-24.52,19.95-44.47,44.47-44.47c24.512,0,44.454,19.95,44.454,44.47
				c0,1.361-0.082,2.808-0.252,4.408h-16.83c-0.958,0-1.887,0.361-2.71,1.034c-0.282,0.138-0.541,0.321-0.767,0.541L46.068,95.49
				c-0.224,0.226-0.434,0.468-0.627,0.721H25.449c-7.752,0.011-14.032,6.294-14.038,14.045v2.461
				c0.011,7.748,6.291,14.024,14.038,14.03h40.242c0.729,0,1.466-0.203,2.127-0.59l26.027-15.511h26.752
				c1.52,0.046,2.944-0.738,3.718-2.046c0.774-1.309,0.775-2.935,0.002-4.244C123.545,103.048,122.121,102.263,120.601,102.308
				L120.601,102.308z M120.601,102.308"/>
		</g>
		<path style="fill:#FFFFFF;" d="M41.799,57.827c-2.217,0.115-3.955,1.946-3.955,4.166c0,2.22,1.739,4.051,3.955,4.166h10.745v7.232
			c0,2.301,1.866,4.166,4.166,4.166c2.301,0,4.166-1.865,4.166-4.166v-7.232h10.738c2.3,0,4.176-1.868,4.176-4.164
			c0-2.3-1.876-4.168-4.176-4.168H60.876v-3.852h10.738c2.3,0,4.176-1.868,4.176-4.164s-1.876-4.164-4.176-4.164h-4.968
			l5.021-10.441c0.482-0.994,0.548-2.14,0.182-3.182c-0.365-1.043-1.132-1.897-2.129-2.373c-2.003-0.958-4.6-0.045-5.566,1.955
			L57.4,45.646h-2.225l-6.754-14.045c-1.026-2.045-3.491-2.903-5.566-1.94c-2.069,1.001-2.94,3.486-1.946,5.559l5.014,10.43h-4.13
			c-1.488,0-2.863,0.793-3.607,2.082c-0.744,1.288-0.744,2.876,0,4.164c0.744,1.289,2.119,2.083,3.607,2.083h10.745v3.848H41.799z
			 M41.799,57.827"/>
	</g>
	<g>
		<g>
			<defs>
				<rect id="SVGID_5_" x="4.715" y="2" width="120.24" height="124.903"/>
			</defs>
			<clipPath id="SVGID_6_">
				<use xlink:href="#SVGID_5_"  style="overflow:visible;"/>
			</clipPath>
		</g>
	</g>
</g>
</svg>
