<?xml version="1.0" encoding="iso-8859-1"?>
<!-- Generator: Adobe Illustrator 21.0.0, SVG Export Plug-In . SVG Version: 6.00 Build 0)  -->
<svg version="1.1" id="&#x56FE;&#x5C42;_1" xmlns="http://www.w3.org/2000/svg" xmlns:xlink="http://www.w3.org/1999/xlink" x="0px"
	 y="0px" viewBox="0 0 128 128" style="enable-background:new 0 0 128 128;" xml:space="preserve">
<g>
	<path style="fill:#FFFFFF;" d="M55.77,52.973c15.35,0,31.315-3.376,40.902-9.812v11.718h8.883V29.221
		c0-15.425-25.643-23.753-49.77-23.753C31.658,5.469,6,13.796,6,29.221v70.026C6,114.672,31.643,123,55.77,123v-8.867
		c-25.343,0-40.903-8.673-40.903-14.885V78.196c9.588,6.422,25.538,9.813,40.903,9.813v-8.883c-25.343,0-40.903-8.673-40.903-14.884
		V43.176C24.456,49.597,40.421,52.973,55.77,52.973L55.77,52.973z M55.77,14.336c25.343,0,40.902,8.673,40.902,14.885
		c0,6.212-15.56,14.884-40.902,14.884s-40.903-8.673-40.903-14.884C14.867,23.009,30.443,14.336,55.77,14.336L55.77,14.336z
		 M95.562,105.159"/>
	<g>
		<defs>
			<rect id="SVGID_1_" x="68.094" y="65.895" width="54.418" height="57.105"/>
		</defs>
		<clipPath id="SVGID_2_">
			<use xlink:href="#SVGID_1_"  style="overflow:visible;"/>
		</clipPath>
		<g style="clip-path:url(#SVGID_2_);">
			<path style="fill:#FFFFFF;" d="M121.026,101.049l-4.5-4.577c0.069-0.673,0.099-1.37,0.099-2.074c0-0.704-0.031-1.385-0.099-2.074
				l4.493-4.577c1.362-0.788,1.829-2.526,1.048-3.888l-4.271-7.401c-0.789-1.362-2.526-1.829-3.888-1.049l-6.215,1.6
				c-1.125-0.804-2.327-1.501-3.59-2.075l-1.715-6.169c0-1.569-1.278-2.847-2.847-2.847h-8.557c-1.569,0-2.847,1.278-2.847,2.847
				l-1.715,6.184c-1.271,0.574-2.472,1.279-3.59,2.074l-6.215-1.6c-1.362-0.788-3.1-0.314-3.888,1.049l-4.256,7.401
				c-0.788,1.363-0.314,3.1,1.049,3.888l4.493,4.577c-0.069,0.673-0.099,1.37-0.099,2.074c0,0.697,0.031,1.385,0.099,2.074
				l-4.493,4.577c-1.362,0.789-1.829,2.526-1.049,3.888l4.271,7.401c0.789,1.363,2.526,1.829,3.888,1.049l6.215-1.599
				c1.125,0.803,2.327,1.5,3.59,2.074l1.715,6.184c0,1.569,1.278,2.847,2.847,2.847h8.549c1.569,0,2.847-1.278,2.847-2.847
				l1.714-6.184c1.271-0.574,2.472-1.278,3.59-2.074l6.207,1.599c1.362,0.788,3.1,0.314,3.888-1.049l4.271-7.401
				C122.848,103.582,122.389,101.837,121.026,101.049L121.026,101.049z M95.271,104.371c-5.503,0-9.973-4.47-9.973-9.973
				c0-5.503,4.47-9.973,9.973-9.973c5.503,0,9.973,4.47,9.973,9.973C105.229,99.909,100.774,104.371,95.271,104.371L95.271,104.371z
				 M95.271,104.371"/>
		</g>
	</g>
</g>
</svg>
