<?xml version="1.0" encoding="iso-8859-1"?>
<!-- Generator: Adobe Illustrator 21.0.0, SVG Export Plug-In . SVG Version: 6.00 Build 0)  -->
<svg version="1.1" id="&#x56FE;&#x5C42;_1" xmlns="http://www.w3.org/2000/svg" xmlns:xlink="http://www.w3.org/1999/xlink" x="0px"
	 y="0px" viewBox="0 0 128 128" style="enable-background:new 0 0 128 128;" xml:space="preserve">
<g>
	<g>
		<defs>
			<rect id="SVGID_1_" x="2" y="6.288" width="125" height="117.472"/>
		</defs>
		<clipPath id="SVGID_2_">
			<use xlink:href="#SVGID_1_"  style="overflow:visible;"/>
		</clipPath>
		<path style="clip-path:url(#SVGID_2_);fill:#FFFFFF;" d="M124.873,44.417c-0.012-0.013-0.025-0.037-0.037-0.049L93.954,9.103
			c-1.493-1.787-3.599-2.816-5.814-2.828h-0.037c-2.215,0-4.333,1.028-5.851,2.815c-1.359,1.543-2.093,3.611-2.093,5.827V29.79
			H68.334c-2.167,0-3.917,1.751-3.917,3.917s1.75,3.917,3.917,3.917h15.754c2.167,0,3.917-1.75,3.917-3.917V14.918
			c0-0.269,0.061-0.478,0.11-0.587l30.797,35.167c0.306,0.38,0.306,1.163,0,1.542L88.139,86.218
			c-0.073-0.134-0.134-0.343-0.134-0.625V65.189c0-2.167-1.751-3.917-3.917-3.917H48.664V44.784c0-4.749-3.562-8.617-7.932-8.617
			c-2.252,0-4.382,1.004-5.851,2.742L4.121,74.222l-0.036,0.037c-2.779,3.281-2.779,8.409,0,11.69
			c0.012,0.024,0.036,0.049,0.061,0.062l30.748,34.775c1.493,1.787,3.599,2.816,5.802,2.828h0.037c2.216,0,4.333-1.028,5.851-2.815
			c1.359-1.543,2.093-3.611,2.093-5.827v-14.689h12.069c2.167,0,3.917-1.75,3.917-3.917c0-2.167-1.75-3.917-3.917-3.917H44.747
			c-2.167,0-3.917,1.751-3.917,3.917v18.63c0,0.269-0.062,0.478-0.11,0.587L10.045,80.882c-0.293-0.38-0.293-1.163,0-1.543
			l30.65-35.167c0.074,0.134,0.135,0.343,0.135,0.625v20.405c0,2.167,1.75,3.917,3.917,3.917h35.424v16.488
			c0,4.749,3.562,8.617,7.932,8.617c2.253,0,4.382-0.992,5.839-2.742l30.883-35.314c0.013-0.012,0.024-0.036,0.037-0.048
			C127.652,52.839,127.652,47.697,124.873,44.417L124.873,44.417z M124.873,44.417"/>
	</g>
</g>
</svg>
