<?xml version="1.0" encoding="iso-8859-1"?>
<!-- Generator: Adobe Illustrator 21.0.0, SVG Export Plug-In . SVG Version: 6.00 Build 0)  -->
<svg version="1.1" id="&#x56FE;&#x5C42;_1" xmlns="http://www.w3.org/2000/svg" xmlns:xlink="http://www.w3.org/1999/xlink" x="0px"
	 y="0px" viewBox="0 0 128 128" style="enable-background:new 0 0 128 128;" xml:space="preserve">
<g>
	<path style="fill:#FFFFFF;" d="M52.5,46.572c14.958,0,30.515-3.29,39.858-9.562v11.419h8.656V23.426
		c0-15.031-24.989-23.146-48.5-23.146C29.003,0.28,4,8.395,4,23.426v68.239c0,15.031,24.988,23.146,48.5,23.146v-8.641
		c-24.696,0-39.859-8.452-39.859-14.505V71.151c9.344,6.258,24.886,9.563,39.859,9.563v-8.656c-24.696,0-39.859-8.451-39.859-14.505
		V37.024C21.985,43.282,37.542,46.572,52.5,46.572L52.5,46.572z M52.5,8.921c24.696,0,39.858,8.452,39.858,14.505
		c0,6.053-15.162,14.505-39.858,14.505s-39.859-8.451-39.859-14.505C12.641,17.373,27.819,8.921,52.5,8.921L52.5,8.921z
		 M91.276,51.309c-21.479,0-32.708,8.261-32.708,16.42v43.851c0,8.158,11.244,16.42,32.708,16.42
		c21.319,0,32.533-8.144,32.709-16.245H124V67.73C123.985,59.571,112.756,51.309,91.276,51.309L91.276,51.309z M91.276,59.951
		c15.88,0,24.067,5.454,24.067,7.779c0,2.325-8.188,7.779-24.067,7.779c-15.879,0-24.067-5.454-24.067-7.779
		C67.209,65.405,75.397,59.951,91.276,59.951L91.276,59.951z M91.276,119.359c-15.879,0-24.067-5.454-24.067-7.779v-10.47
		c5.483,2.983,13.54,4.972,24.067,4.972c10.528,0,18.57-1.988,24.067-4.972v10.47C115.344,113.905,107.156,119.359,91.276,119.359
		L91.276,119.359z M91.276,97.426c-15.879,0-24.067-5.454-24.067-7.779V79.178c5.483,2.983,13.54,4.971,24.067,4.971
		c10.528,0,18.57-1.988,24.067-4.971v10.469C115.344,91.972,107.156,97.426,91.276,97.426L91.276,97.426z M91.276,97.426"/>
</g>
</svg>
