<?xml version="1.0" encoding="iso-8859-1"?>
<!-- Generator: Adobe Illustrator 21.0.0, SVG Export Plug-In . SVG Version: 6.00 Build 0)  -->
<svg version="1.1" id="&#x56FE;&#x5C42;_1" xmlns="http://www.w3.org/2000/svg" xmlns:xlink="http://www.w3.org/1999/xlink" x="0px"
	 y="0px" viewBox="0 0 128 128" style="enable-background:new 0 0 128 128;" xml:space="preserve">
<g>
	<g>
		<defs>
			<rect id="SVGID_1_" x="12" width="105.491" height="127.72"/>
		</defs>
		<clipPath id="SVGID_2_">
			<use xlink:href="#SVGID_1_"  style="overflow:visible;"/>
		</clipPath>
		<path style="clip-path:url(#SVGID_2_);fill:#FFFFFF;" d="M20.784,8.873c-4.853,0-8.803,3.921-8.803,8.772v101.148
			c0,4.856,3.947,8.772,8.803,8.772h87.898c4.852,0,8.802-3.921,8.802-8.772V17.645c0-4.856-3.947-8.772-8.802-8.772H95.505
			l4.396,4.396v-6.6c0-3.624-2.948-6.588-6.586-6.588H36.152c-3.651,0-6.586,2.949-6.586,6.588v6.6l4.396-4.396H20.784z
			 M38.357,17.665V6.669c0,1.208-0.991,2.204-2.205,2.204h57.163c-0.585,0.003-1.148-0.229-1.562-0.643
			c-0.415-0.414-0.646-0.976-0.644-1.562v10.996h17.573c0.015,0,0.01,101.128,0.01,101.128c0-0.019-87.909-0.02-87.909-0.02
			c-0.015,0-0.011-101.128-0.011-101.128c0,0.019,13.188,0.02,13.188,0.02H38.357z M91.109,19.87c0-1.208,0.991-2.205,2.205-2.205
			H36.152c0.585-0.002,1.148,0.229,1.562,0.643c0.414,0.415,0.646,0.976,0.643,1.562v-6.6c0-2.428-1.968-4.396-4.396-4.396
			c-2.428,0-4.396,1.968-4.396,4.396v6.6c0,3.624,2.949,6.587,6.586,6.587h57.163c3.651,0,6.586-2.949,6.586-6.587v-6.6
			c0-2.428-1.968-4.396-4.396-4.396c-2.428,0-4.396,1.968-4.396,4.396V19.87z M91.109,55.03c2.428,0,4.396-1.968,4.396-4.396
			c0-2.428-1.968-4.396-4.396-4.396H38.357c-2.427,0-4.396,1.968-4.396,4.396c0,2.428,1.968,4.396,4.396,4.396H91.109z
			 M38.357,68.219c-2.427,0-4.396,1.968-4.396,4.396c0,2.428,1.968,4.396,4.396,4.396h52.752c2.428,0,4.396-1.968,4.396-4.396
			c0-2.428-1.968-4.396-4.396-4.396H38.357z M38.357,90.199c-2.427,0-4.396,1.968-4.396,4.396c0,2.428,1.968,4.396,4.396,4.396
			h35.168c2.427,0,4.396-1.968,4.396-4.396c0-2.427-1.968-4.396-4.396-4.396H38.357z M38.357,90.199"/>
	</g>
</g>
</svg>
