<?xml version="1.0" encoding="iso-8859-1"?>
<!-- Generator: Adobe Illustrator 21.0.0, SVG Export Plug-In . SVG Version: 6.00 Build 0)  -->
<svg version="1.1" id="&#x56FE;&#x5C42;_1" xmlns="http://www.w3.org/2000/svg" xmlns:xlink="http://www.w3.org/1999/xlink" x="0px"
	 y="0px" viewBox="0 0 128 128" style="enable-background:new 0 0 128 128;" xml:space="preserve">
<g>
	<path style="fill:#FFFFFF;" d="M53.77,52.973c15.35,0,31.315-3.376,40.902-9.812v11.718h8.883V29.221
		c0-15.425-25.643-23.753-49.77-23.753C29.658,5.469,4,13.796,4,29.221v70.026C4,114.672,29.643,123,53.77,123v-8.867
		c-25.343,0-40.903-8.673-40.903-14.885V78.196c9.588,6.422,25.538,9.813,40.903,9.813v-8.883c-25.343,0-40.903-8.673-40.903-14.884
		V43.176C22.456,49.597,38.421,52.973,53.77,52.973L53.77,52.973z M53.77,14.336c25.343,0,40.902,8.673,40.902,14.885
		c0,6.212-15.56,14.884-40.902,14.884s-40.903-8.673-40.903-14.884C12.867,23.009,28.443,14.336,53.77,14.336L53.77,14.336z
		 M93.562,105.159"/>
	<defs>
		<filter id="Adobe_OpacityMaskFilter" filterUnits="userSpaceOnUse" x="62.236" y="61.589" width="61.411" height="61.411">
			
				<feColorMatrix  type="matrix" values="-1 0 0 0 1  0 -1 0 0 1  0 0 -1 0 1  0 0 0 1 0" color-interpolation-filters="sRGB" result="source"/>
			<feFlood  style="flood-color:white;flood-opacity:1" result="back"/>
			<feBlend  in="source" in2="back" mode="normal"/>
		</filter>
	</defs>
	<mask maskUnits="userSpaceOnUse" x="62.236" y="61.589" width="61.411" height="61.411" id="SVGID_1_">
		<g style="filter:url(#Adobe_OpacityMaskFilter);">
			<g>
				
					<line style="fill:none;stroke:#FFFFFF;stroke-width:9.5955;stroke-linecap:round;stroke-linejoin:round;stroke-miterlimit:10;" x1="76.15" y1="93.554" x2="87.065" y2="104.469"/>
				
					<line style="fill:none;stroke:#FFFFFF;stroke-width:9.5955;stroke-linecap:round;stroke-linejoin:round;stroke-miterlimit:10;" x1="109.734" y1="80.12" x2="87.065" y2="104.469"/>
			</g>
		</g>
	</mask>
	<circle style="mask:url(#SVGID_1_);fill:#FFFFFF;" cx="92.942" cy="92.294" r="30.706"/>
</g>
</svg>
