<?xml version="1.0" encoding="iso-8859-1"?>
<!-- Generator: Adobe Illustrator 21.0.0, SVG Export Plug-In . SVG Version: 6.00 Build 0)  -->
<svg version="1.1" id="&#x56FE;&#x5C42;_1" xmlns="http://www.w3.org/2000/svg" xmlns:xlink="http://www.w3.org/1999/xlink" x="0px"
	 y="0px" viewBox="0 0 128 128" style="enable-background:new 0 0 128 128;" xml:space="preserve">
<g>
	<path style="fill:#FFFFFF;" d="M68.285,64.599V6.331c0-2.331-1.942-4.273-4.273-4.273c-2.331,0-4.273,1.943-4.273,4.273v58.268
		c-7.769,1.942-13.207,8.934-13.207,17.091s5.827,15.15,13.207,17.092v22.53c0,2.331,1.942,4.273,4.273,4.273
		c2.331,0,4.273-1.942,4.273-4.273v-22.53c7.769-1.942,13.207-8.934,13.207-17.092C81.881,73.533,76.054,66.541,68.285,64.599
		L68.285,64.599z M70.227,88.294c-3.107,3.108-7.769,3.496-11.265,1.165c-3.496-2.331-5.05-6.992-3.108-10.876
		c1.554-3.885,5.827-6.216,10.1-5.439c4.272,0.777,6.992,4.661,6.992,8.546C72.947,84.41,71.781,86.74,70.227,88.294L70.227,88.294z
		 M24.002,20.315V6.331c0-1.554-0.776-3.108-2.331-3.884c-1.165-0.389-2.719-0.389-4.272,0.388
		c-1.554,0.777-2.331,2.331-2.331,3.884v13.596C7.687,22.258,1.86,29.25,1.86,37.407s5.827,15.149,13.207,17.092v66.813
		c0,1.553,0.777,3.108,2.331,3.884c1.554,0.777,3.107,0.777,4.272,0c1.554-0.776,2.331-2.331,2.331-3.884V54.888
		c7.769-1.943,13.208-8.934,13.208-17.092C37.209,29.25,31.771,22.258,24.002,20.315L24.002,20.315z M25.944,44.011
		c-3.108,3.107-7.769,3.496-11.265,1.165c-3.496-2.331-5.05-6.992-3.108-10.877c1.554-3.884,5.827-6.215,10.1-5.438
		c4.273,0.777,6.992,4.662,6.992,8.546C28.663,40.126,27.498,42.069,25.944,44.011L25.944,44.011z M126.164,37.407
		c0-8.157-5.827-15.149-13.207-17.092V6.331c0-1.554-0.777-3.108-2.331-3.884c-1.554-0.777-3.108-0.777-4.273,0
		c-1.554,0.776-2.331,2.331-2.331,3.884v13.596c-7.769,1.942-13.208,8.934-13.208,17.092c0,8.157,5.827,15.15,13.208,17.091v66.813
		c0,1.554,0.777,3.108,2.331,3.885c1.554,0.777,3.108,0.777,4.273,0c1.553-0.777,2.331-2.331,2.331-3.885V54.888
		C120.337,52.945,126.164,45.953,126.164,37.407L126.164,37.407z M114.511,44.011c-3.108,3.107-7.769,3.496-11.265,1.165
		c-3.496-2.331-5.05-6.992-3.108-10.877c1.554-3.884,5.827-6.215,10.1-5.438c4.273,0.777,6.992,4.662,6.992,8.546
		C117.23,40.126,116.453,42.069,114.511,44.011L114.511,44.011z M114.511,44.011"/>
	<path style="fill:#FFFFFF;" d="M19.684,127.644c-1.014,0-2.075-0.261-3.118-0.784c-2.071-1.033-3.359-3.158-3.359-5.547V55.876
		C5.476,53.189,0,45.645,0,37.408S5.476,21.627,13.208,18.94V6.719c0-2.386,1.288-4.512,3.359-5.548
		c1.82-0.91,3.897-1.087,5.694-0.489l0.243,0.101c2.071,1.035,3.359,3.161,3.359,5.548V18.92
		c7.959,2.631,13.208,10.038,13.208,18.876c0,8.476-5.361,15.878-13.208,18.487v65.03c0,2.348-1.244,4.443-3.257,5.497
		C21.73,127.365,20.733,127.644,19.684,127.644z M20.044,4.052c-0.501,0-1.126,0.103-1.813,0.447
		c-0.816,0.408-1.303,1.237-1.303,2.22V21.75l-1.386,0.365C8.691,23.917,3.721,30.349,3.721,37.408S8.691,50.898,15.542,52.7
		l1.386,0.365v68.247c0,0.984,0.487,1.813,1.301,2.219c0.937,0.471,1.819,0.513,2.411,0.117l0.2-0.116
		c0.816-0.407,1.303-1.237,1.303-2.22V53.435l1.41-0.352c6.945-1.737,11.798-8.023,11.798-15.287
		c0-7.611-4.742-13.911-11.798-15.675l-1.41-0.352V6.332c0-0.936-0.441-1.732-1.186-2.158C20.745,4.114,20.431,4.052,20.044,4.052z
		 M64.012,127.446c-3.383,0-6.133-2.751-6.133-6.133v-21.154c-7.732-2.687-13.208-10.231-13.208-18.468
		c0-8.477,5.361-15.878,13.208-18.486V6.332c0-3.382,2.751-6.133,6.133-6.133c3.383,0,6.133,2.751,6.133,6.133v56.871
		c8.119,2.674,13.602,10.269,13.206,18.577c0.002,8.391-5.359,15.789-13.206,18.398v21.135
		C70.146,124.694,67.395,127.446,64.012,127.446z M64.012,3.919c-1.308,0-2.413,1.105-2.413,2.413v59.72l-1.41,0.352
		c-6.945,1.736-11.798,8.022-11.798,15.286c0,7.059,4.971,13.49,11.821,15.292l1.386,0.365v23.964c0,1.308,1.105,2.413,2.413,2.413
		s2.413-1.105,2.413-2.413V97.33l1.41-0.352c6.945-1.737,11.798-8.023,11.798-15.287c0.336-7.103-4.627-13.494-11.798-15.286
		l-1.41-0.352V6.332C66.425,5.023,65.32,3.919,64.012,3.919z M108.64,127.256c-1.014,0-2.075-0.261-3.119-0.783
		c-2.073-1.037-3.359-3.164-3.359-5.549V55.487c-7.732-2.688-13.208-10.232-13.208-18.468c0-8.476,5.361-15.878,13.208-18.487v-12.2
		c0-2.348,1.244-4.443,3.257-5.497c1.722-1.094,3.917-1.115,6.039-0.051c2.071,1.034,3.359,3.16,3.359,5.547V18.94
		c7.732,2.687,13.208,10.231,13.208,18.468c0,8.592-5.363,16.146-13.208,18.858v64.658c0,2.346-1.244,4.442-3.257,5.497
		C110.686,126.977,109.689,127.256,108.64,127.256z M108.348,3.726c-0.365,0-0.694,0.089-0.963,0.269l-0.2,0.116
		c-0.816,0.407-1.303,1.237-1.303,2.22v15.048l-1.41,0.352c-6.945,1.737-11.798,8.023-11.798,15.287
		c0,7.059,4.971,13.49,11.821,15.292l1.386,0.365v68.247c0,0.983,0.487,1.813,1.303,2.222c0.937,0.467,1.815,0.511,2.409,0.115
		l0.2-0.115c0.816-0.409,1.303-1.239,1.303-2.222V53.453l1.386-0.365c6.96-1.83,11.821-8.279,11.821-15.68
		c0-7.059-4.971-13.491-11.821-15.292l-1.386-0.365V6.332c0-0.983-0.487-1.813-1.303-2.22
		C109.282,3.855,108.788,3.726,108.348,3.726z M63.887,92.83c-2.055,0-4.12-0.6-5.957-1.823c-4.433-2.956-6.039-8.655-3.739-13.257
		c1.835-4.604,6.944-7.376,12.096-6.437c4.858,0.884,8.52,5.345,8.52,10.376c0,2.958-1.19,5.844-3.265,7.919l0,0
		C69.417,91.736,66.665,92.83,63.887,92.83z M64.329,74.859c-2.916,0-5.679,1.747-6.746,4.415c-1.528,3.068-0.463,6.722,2.411,8.639
		c2.82,1.882,6.491,1.496,8.918-0.933l0,0c1.383-1.383,2.175-3.31,2.175-5.288c0-2.773-1.915-6.07-5.465-6.716
		C65.19,74.897,64.757,74.859,64.329,74.859z M108.17,48.547c-2.053,0-4.12-0.599-5.955-1.822
		c-4.433-2.955-6.041-8.654-3.741-13.258c1.833-4.605,6.94-7.379,12.096-6.437c4.858,0.884,8.52,5.345,8.52,10.377
		c0,3.218-1.006,5.66-3.265,7.919l0,0C113.7,47.453,110.946,48.547,108.17,48.547z M108.611,30.575
		c-2.916,0-5.679,1.747-6.746,4.415c-1.528,3.069-0.463,6.723,2.413,8.639c2.82,1.878,6.488,1.496,8.917-0.933
		c1.564-1.566,2.175-3.048,2.175-5.288c0-2.774-1.915-6.071-5.465-6.716C109.472,30.613,109.04,30.575,108.611,30.575z
		 M19.602,48.547c-2.053,0-4.12-0.6-5.955-1.822c-4.433-2.956-6.041-8.656-3.741-13.258c1.837-4.605,6.947-7.377,12.098-6.437
		c4.856,0.884,8.519,5.345,8.519,10.377c0,3.389-1.502,5.735-3.125,7.766l-0.138,0.154C25.133,47.453,22.38,48.547,19.602,48.547z
		 M20.046,30.575c-2.916,0-5.679,1.747-6.747,4.416c-1.528,3.068-0.463,6.721,2.413,8.639c2.794,1.862,6.417,1.503,8.847-0.864
		c1.388-1.749,2.244-3.266,2.244-5.358c0-2.774-1.915-6.071-5.463-6.716C20.909,30.613,20.475,30.575,20.046,30.575z"/>
</g>
</svg>
