<?xml version="1.0" encoding="iso-8859-1"?>
<!-- Generator: Adobe Illustrator 21.0.0, SVG Export Plug-In . SVG Version: 6.00 Build 0)  -->
<svg version="1.1" id="&#x56FE;&#x5C42;_1" xmlns="http://www.w3.org/2000/svg" xmlns:xlink="http://www.w3.org/1999/xlink" x="0px"
	 y="0px" viewBox="0 0 128 128" style="enable-background:new 0 0 128 128;" xml:space="preserve">
<g>
	<g>
		<defs>
			<rect id="SVGID_1_" y="9.6" width="128" height="109.32"/>
		</defs>
		<clipPath id="SVGID_2_">
			<use xlink:href="#SVGID_1_"  style="overflow:visible;"/>
		</clipPath>
		<path style="clip-path:url(#SVGID_2_);fill:#FFFFFF;" d="M2.219,52.785c2.413,1.813,5.827,1.333,7.654-1.08l24.92-33.067
			c1.813-2.413,1.333-5.826-1.08-7.653c-2.413-1.813-5.827-1.333-7.653,1.08L1.139,45.132C-0.66,47.545-0.18,50.972,2.219,52.785
			L2.219,52.785z M2.219,52.785"/>
		<path style="clip-path:url(#SVGID_2_);fill:#FFFFFF;" d="M67.753,117.345c2.24-2.027,2.4-5.48,0.374-7.707L9.499,44.945
			c-2.027-2.24-5.48-2.4-7.706-0.373c-2.24,2.027-2.4,5.48-0.374,7.706l58.641,64.693C62.073,119.199,65.526,119.372,67.753,117.345
			L67.753,117.345z M125.713,52.638c-2.413,1.814-5.827,1.333-7.653-1.08L93.139,18.492c-1.813-2.413-1.333-5.827,1.08-7.653
			c2.414-1.814,5.827-1.333,7.654,1.079l24.92,33.067C128.606,47.399,128.126,50.825,125.713,52.638L125.713,52.638z
			 M125.713,52.638"/>
		<path style="clip-path:url(#SVGID_2_);fill:#FFFFFF;" d="M60.18,117.199c-2.24-2.027-2.4-5.48-0.374-7.707l58.64-64.693
			c2.027-2.24,5.48-2.4,7.707-0.373c2.24,2.027,2.4,5.48,0.373,7.706L67.9,116.825C65.873,119.052,62.419,119.225,60.18,117.199
			L60.18,117.199z M68.553,88.745c2.24-2.027,2.4-5.48,0.374-7.706l-27.64-30.507c-2.027-2.24-5.481-2.4-7.707-0.374
			c-2.24,2.027-2.4,5.48-0.373,7.707l27.653,30.507C62.873,90.599,66.326,90.772,68.553,88.745L68.553,88.745z M68.553,88.745"/>
	</g>
	<path style="fill:#FFFFFF;" d="M61.219,88.745c-2.24-2.027-2.4-5.48-0.373-7.706l27.64-30.507c2.027-2.24,5.48-2.4,7.706-0.374
		c2.24,2.027,2.4,5.48,0.374,7.707l-27.64,30.507C66.9,90.599,63.446,90.772,61.219,88.745L61.219,88.745z M102.927,15.212
		c0-3.013-2.44-5.467-5.467-5.467H30.473c-3.013,0-5.466,2.44-5.466,5.467c0,3.014,2.439,5.467,5.466,5.467H97.46
		C100.486,20.679,102.927,18.225,102.927,15.212L102.927,15.212z M102.927,15.212"/>
</g>
</svg>
