<?xml version="1.0" encoding="iso-8859-1"?>
<!-- Generator: Adobe Illustrator 21.0.0, SVG Export Plug-In . SVG Version: 6.00 Build 0)  -->
<svg version="1.1" id="&#x56FE;&#x5C42;_1" xmlns="http://www.w3.org/2000/svg" xmlns:xlink="http://www.w3.org/1999/xlink" x="0px"
	 y="0px" viewBox="0 0 128 128" style="enable-background:new 0 0 128 128;" xml:space="preserve">
<g>
	<path style="fill:#FFFFFF;stroke:#FFFFFF;stroke-width:3.5859;stroke-miterlimit:10;" d="M106.175,58.653
		c-2.417,0-4.376-1.959-4.376-4.375V12.714c0-0.604-0.49-1.094-1.093-1.094H11.834c-0.604,0-1.094,0.49-1.094,1.094v102.817
		c0,0.604,0.49,1.094,1.094,1.094h39.514c2.416,0,4.375,1.959,4.375,4.375c0,2.417-1.959,4.376-4.375,4.376H6.365
		c-2.417,0-4.376-1.959-4.376-4.376V7.245c0-2.417,1.959-4.376,4.376-4.376h99.81c2.416,0,4.375,1.959,4.375,4.376v47.034
		C110.55,56.695,108.591,58.653,106.175,58.653L106.175,58.653z M24.198,31.035h64.397c2.417,0,4.376,1.959,4.376,4.375
		c0,2.417-1.959,4.376-4.376,4.376H24.198c-2.417,0-4.376-1.959-4.376-4.376C19.822,32.994,21.781,31.035,24.198,31.035
		L24.198,31.035z M24.882,59.201h28.985c2.417,0,4.376,1.959,4.376,4.375c0,2.417-1.959,4.376-4.376,4.376H24.882
		c-2.417,0-4.376-1.959-4.376-4.376C20.506,61.16,22.465,59.201,24.882,59.201L24.882,59.201z M24.882,87.366h28.985
		c2.417,0,4.376,1.959,4.376,4.376c0,2.416-1.959,4.376-4.376,4.376H24.882c-2.417,0-4.376-1.959-4.376-4.376
		C20.506,89.325,22.465,87.366,24.882,87.366L24.882,87.366z M72.774,59.201h6.016c2.416,0,4.376,1.959,4.376,4.375
		c0,2.417-1.959,4.376-4.376,4.376h-6.016c-2.417,0-4.376-1.959-4.376-4.376C68.399,61.16,70.357,59.201,72.774,59.201
		L72.774,59.201z"/>
	<rect x="2.012" y="-7" style="fill:none;" width="127.759" height="132.553"/>
	<g>
		<defs>
			<rect id="SVGID_1_" x="73.754" y="73.621" width="51.821" height="54.379"/>
		</defs>
		<clipPath id="SVGID_2_">
			<use xlink:href="#SVGID_1_"  style="overflow:visible;"/>
		</clipPath>
		<g style="clip-path:url(#SVGID_2_);">
			<path style="fill:#FFFFFF;" d="M124.159,107.097l-4.286-4.358c0.065-0.641,0.095-1.305,0.095-1.975
				c0-0.671-0.029-1.319-0.095-1.975l4.278-4.358c1.297-0.751,1.742-2.405,0.998-3.703l-4.067-7.048
				c-0.751-1.297-2.405-1.742-3.703-0.999l-5.918,1.524c-1.071-0.765-2.216-1.429-3.418-1.976l-1.633-5.874
				c0-1.494-1.217-2.711-2.711-2.711h-8.149c-1.494,0-2.711,1.217-2.711,2.711l-1.633,5.889c-1.21,0.547-2.354,1.218-3.418,1.975
				l-5.918-1.523c-1.297-0.751-2.952-0.299-3.703,0.999l-4.052,7.048c-0.751,1.298-0.299,2.952,0.999,3.703l4.278,4.358
				c-0.065,0.641-0.095,1.305-0.095,1.975c0,0.663,0.029,1.319,0.095,1.975l-4.278,4.358c-1.297,0.751-1.742,2.405-0.999,3.703
				l4.067,7.048c0.751,1.298,2.405,1.742,3.703,0.999l5.918-1.523c1.071,0.765,2.216,1.428,3.418,1.975l1.633,5.889
				c0,1.494,1.217,2.711,2.711,2.711h8.141c1.494,0,2.711-1.217,2.711-2.711l1.632-5.889c1.21-0.547,2.354-1.217,3.418-1.975
				l5.911,1.523c1.297,0.751,2.952,0.299,3.703-0.999l4.067-7.048C125.894,109.509,125.457,107.848,124.159,107.097L124.159,107.097
				z M99.634,110.26c-5.24,0-9.497-4.257-9.497-9.497c0-5.24,4.257-9.497,9.497-9.497c5.24,0,9.497,4.256,9.497,9.497
				C109.116,106.011,104.874,110.26,99.634,110.26L99.634,110.26z M99.634,110.26"/>
		</g>
	</g>
</g>
</svg>
