<?xml version="1.0" encoding="iso-8859-1"?>
<!-- Generator: Adobe Illustrator 21.0.0, SVG Export Plug-In . SVG Version: 6.00 Build 0)  -->
<svg version="1.1" id="&#x56FE;&#x5C42;_1" xmlns="http://www.w3.org/2000/svg" xmlns:xlink="http://www.w3.org/1999/xlink" x="0px"
	 y="0px" viewBox="0 0 128 128" style="enable-background:new 0 0 128 128;" xml:space="preserve">
<g>
	<g>
		<defs>
			<rect id="SVGID_1_" x="74.754" y="72.621" width="51.821" height="54.379"/>
		</defs>
		<clipPath id="SVGID_2_">
			<use xlink:href="#SVGID_1_"  style="overflow:visible;"/>
		</clipPath>
		<g style="clip-path:url(#SVGID_2_);">
			<path style="fill:#FFFFFF;" d="M125.159,106.097l-4.286-4.358c0.065-0.641,0.095-1.305,0.095-1.975
				c0-0.671-0.029-1.319-0.095-1.975l4.278-4.358c1.297-0.751,1.742-2.405,0.998-3.703l-4.067-7.048
				c-0.751-1.297-2.405-1.742-3.703-0.999l-5.918,1.524c-1.071-0.765-2.216-1.429-3.418-1.976l-1.633-5.874
				c0-1.494-1.217-2.711-2.711-2.711h-8.149c-1.494,0-2.711,1.217-2.711,2.711l-1.633,5.889c-1.21,0.547-2.354,1.218-3.418,1.975
				l-5.918-1.523c-1.297-0.751-2.952-0.299-3.703,0.999l-4.052,7.048c-0.751,1.298-0.299,2.952,0.999,3.703l4.278,4.358
				c-0.065,0.641-0.095,1.305-0.095,1.975c0,0.663,0.029,1.319,0.095,1.975l-4.278,4.358c-1.297,0.751-1.742,2.405-0.999,3.703
				l4.067,7.048c0.751,1.298,2.405,1.742,3.703,0.999l5.918-1.523c1.071,0.765,2.216,1.428,3.418,1.975l1.633,5.889
				c0,1.494,1.217,2.711,2.711,2.711h8.141c1.494,0,2.711-1.217,2.711-2.711l1.632-5.889c1.21-0.547,2.354-1.217,3.418-1.975
				l5.911,1.523c1.297,0.751,2.952,0.299,3.703-0.999l4.067-7.048C126.894,108.509,126.457,106.848,125.159,106.097L125.159,106.097
				z M100.634,109.26c-5.24,0-9.497-4.257-9.497-9.497c0-5.24,4.257-9.497,9.497-9.497c5.24,0,9.497,4.256,9.497,9.497
				C110.116,105.011,105.874,109.26,100.634,109.26L100.634,109.26z M100.634,109.26"/>
		</g>
	</g>
	<g>
		<defs>
			<rect id="SVGID_3_" x="9" y="2" width="111.367" height="125"/>
		</defs>
		<clipPath id="SVGID_4_">
			<use xlink:href="#SVGID_3_"  style="overflow:visible;"/>
		</clipPath>
		<path style="clip-path:url(#SVGID_4_);fill:#FFFFFF;" d="M100.965,38.598c0-19.164-15.561-34.648-34.724-34.648
			c-19.164,0-34.648,15.561-34.648,34.725c0,11.728,5.903,22.613,15.715,28.976c0.46,0.229,0.613,0.766,0.383,1.226
			c-0.077,0.154-0.23,0.307-0.383,0.384c-10.118,3.679-18.934,10.195-25.449,18.704c-7.206,9.505-11.115,21.156-11.039,33.115
			c0,2.069,1.686,3.756,3.756,3.756c2.07,0,3.756-1.686,3.756-3.756c-0.077-26.293,21.157-47.603,47.372-47.756h0.69
			c19.01-0.307,34.188-15.714,34.265-34.725H100.965z M66.394,65.734C51.446,65.81,39.335,53.776,39.182,38.905
			C39.105,23.957,51.14,11.846,66.01,11.692c14.871-0.153,27.059,11.959,27.213,26.83c0.077,7.205-2.837,14.181-7.896,19.24
			C80.268,62.898,73.446,65.734,66.394,65.734L66.394,65.734z"/>
		<path style="clip-path:url(#SVGID_4_);fill:#FFFFFF;" d="M14.652,126.828c-3.143,0-5.673-2.53-5.673-5.673
			c-0.077-12.265,4.063-24.453,11.422-34.265c6.362-8.279,14.718-14.718,24.376-18.627c-9.429-6.899-15.024-17.784-15.024-29.513
			c0-9.812,3.756-18.934,10.655-25.909C47.307,5.943,56.505,2.11,66.241,2.11h0.076c9.735,0,18.934,3.756,25.833,10.655
			c6.899,6.899,10.732,16.097,10.732,25.832v1.38l-0.153,0.077c-0.383,9.198-4.14,17.784-10.579,24.3
			c-6.822,6.899-15.867,10.732-25.602,10.961H65.78c-25.142,0.154-45.532,20.697-45.456,45.84
			C20.401,124.221,17.795,126.828,14.652,126.828L14.652,126.828z M48.38,66.04c1.303,0.766,1.763,2.453,0.997,3.832
			c-0.23,0.46-0.613,0.844-1.073,1.074l-0.307,0.153c-9.735,3.526-18.244,9.812-24.53,18.09
			c-6.899,9.122-10.731,20.467-10.655,31.889c0,1.073,0.843,1.916,1.839,1.916s1.84-0.843,1.84-1.839
			C16.415,93.866,38.568,71.636,65.78,71.483h0.767c17.783-0.307,32.271-15.024,32.348-32.808v-1.38h0.077
			c-0.384-8.202-3.757-15.944-9.582-21.77c-6.209-6.132-14.411-9.582-23.149-9.582h-0.077c-8.662,0-16.864,3.373-23.074,9.582
			c-6.209,6.209-9.582,14.411-9.582,23.15C33.586,49.789,39.105,59.984,48.38,66.04L48.38,66.04z M66.164,67.65
			c-7.666,0-14.871-2.99-20.314-8.356c-5.52-5.442-8.586-12.648-8.586-20.39s2.913-15.025,8.356-20.544
			c5.442-5.519,12.648-8.509,20.39-8.585h0.154c15.868,0,28.822,12.878,28.898,28.746c0.077,7.665-3.066,15.178-8.432,20.62
			c-5.442,5.442-12.648,8.432-20.314,8.509H66.164z M66.164,13.608H66.01c-6.669,0.077-13.031,2.683-17.707,7.436
			c-4.676,4.753-7.283,11.115-7.283,17.784c0,6.669,2.683,13.031,7.435,17.707c4.753,4.676,10.962,7.282,17.631,7.282h0.154
			c6.669,0,12.878-2.606,17.63-7.358c4.676-4.753,7.359-11.269,7.359-17.937C91.23,24.8,79.962,13.608,66.164,13.608L66.164,13.608z
			 M66.164,13.608"/>
	</g>
</g>
</svg>
