<?xml version="1.0" encoding="iso-8859-1"?>
<!-- Generator: Adobe Illustrator 21.0.0, SVG Export Plug-In . SVG Version: 6.00 Build 0)  -->
<svg version="1.1" id="&#x56FE;&#x5C42;_1" xmlns="http://www.w3.org/2000/svg" xmlns:xlink="http://www.w3.org/1999/xlink" x="0px"
	 y="0px" viewBox="0 0 128 128" style="enable-background:new 0 0 128 128;" xml:space="preserve">
<g>
	<g>
		<defs>
			<rect id="SVGID_1_" x="9" y="1" width="111.367" height="125"/>
		</defs>
		<clipPath id="SVGID_2_">
			<use xlink:href="#SVGID_1_"  style="overflow:visible;"/>
		</clipPath>
		<path style="clip-path:url(#SVGID_2_);fill:#FFFFFF;" d="M100.965,37.598c0-19.164-15.561-34.648-34.724-34.648
			c-19.164,0-34.648,15.561-34.648,34.725c0,11.728,5.903,22.613,15.715,28.976c0.46,0.229,0.613,0.766,0.383,1.226
			c-0.077,0.154-0.23,0.307-0.383,0.384c-10.118,3.679-18.934,10.195-25.449,18.704c-7.206,9.505-11.115,21.156-11.039,33.115
			c0,2.069,1.686,3.756,3.756,3.756c2.07,0,3.756-1.686,3.756-3.756c-0.077-26.293,21.157-47.603,47.372-47.756h0.69
			c19.01-0.307,34.188-15.714,34.265-34.725H100.965z M66.394,64.734C51.446,64.81,39.335,52.776,39.182,37.905
			C39.105,22.957,51.14,10.846,66.01,10.692c14.871-0.153,27.059,11.959,27.213,26.83c0.077,7.205-2.837,14.181-7.896,19.24
			C80.268,61.898,73.446,64.734,66.394,64.734L66.394,64.734z M115.223,95.319h-3.527v-8.203
			c0.383-6.822-4.905-12.724-11.728-13.107c-6.823-0.384-12.725,4.906-13.108,11.728v9.582h-3.527c-1.686,0-3.066,1.38-3.066,3.066
			v22.383c0,1.686,1.38,3.066,3.066,3.066h31.889c1.686,0,3.066-1.38,3.066-3.066V98.385
			C118.289,96.699,116.91,95.319,115.223,95.319L115.223,95.319z M101.502,111.11v6.286c0,0.307-0.23,0.536-0.537,0.536h-3.296
			c-0.307,0-0.537-0.23-0.537-0.536v-6.286c-2.453-1.226-3.373-4.216-2.146-6.592c1.226-2.453,4.216-3.373,6.592-2.147
			c2.453,1.227,3.373,4.216,2.147,6.593c-0.46,0.92-1.227,1.686-2.147,2.146H101.502z M106.944,95.319H91.767v-7.972
			c0-4.216,3.373-7.588,7.589-7.588c4.216,0,7.588,3.373,7.588,7.588V95.319z M106.944,95.319"/>
		<path style="clip-path:url(#SVGID_2_);fill:#FFFFFF;" d="M115.223,125.828H83.334c-2.759,0-4.982-2.223-4.982-4.983V98.462
			c0-2.76,2.223-4.983,4.982-4.983h1.61v-7.742c0.23-3.833,1.917-7.359,4.753-9.888c2.837-2.529,6.516-3.832,10.349-3.603
			c7.895,0.46,13.951,7.206,13.568,15.025v6.209h1.61c2.76,0,4.982,2.223,4.982,4.983v22.383
			C120.205,123.528,117.983,125.828,115.223,125.828L115.223,125.828z M83.412,97.235c-0.613,0-1.15,0.537-1.15,1.15v22.383
			c0,0.613,0.537,1.149,1.15,1.149H115.3c0.613,0,1.149-0.536,1.149-1.149V98.385c0-0.613-0.536-1.15-1.149-1.15h-5.442V87.04
			c0.307-5.825-4.139-10.732-9.888-11.115c-2.837-0.153-5.52,0.766-7.589,2.683c-2.07,1.84-3.296,4.446-3.449,7.283v11.344H83.412z
			 M14.652,125.828c-3.143,0-5.673-2.53-5.673-5.673c-0.077-12.265,4.063-24.453,11.422-34.265
			c6.362-8.279,14.718-14.718,24.376-18.627c-9.429-6.899-15.024-17.784-15.024-29.513c0-9.812,3.756-18.934,10.655-25.909
			C47.307,4.943,56.505,1.11,66.241,1.11h0.076c9.735,0,18.934,3.756,25.833,10.655c6.899,6.899,10.732,16.097,10.732,25.832v1.38
			l-0.153,0.077c-0.383,9.198-4.14,17.784-10.579,24.3c-6.822,6.899-15.867,10.732-25.602,10.961H65.78
			c-25.142,0.154-45.532,20.697-45.456,45.84C20.401,123.221,17.795,125.828,14.652,125.828L14.652,125.828z M48.38,65.04
			c1.303,0.766,1.763,2.453,0.997,3.832c-0.23,0.46-0.613,0.844-1.073,1.074l-0.307,0.153c-9.735,3.526-18.244,9.812-24.53,18.09
			c-6.899,9.122-10.731,20.467-10.655,31.889c0,1.073,0.843,1.916,1.839,1.916s1.84-0.843,1.84-1.839
			C16.415,92.866,38.568,70.636,65.78,70.483h0.767c17.783-0.307,32.271-15.024,32.348-32.808v-1.38h0.077
			c-0.384-8.202-3.757-15.944-9.582-21.77c-6.209-6.132-14.411-9.582-23.149-9.582h-0.077c-8.662,0-16.864,3.373-23.074,9.582
			c-6.209,6.209-9.582,14.411-9.582,23.15C33.586,48.789,39.105,58.984,48.38,65.04L48.38,65.04z M108.861,97.235h-19.01v-9.888
			c0-5.212,4.292-9.505,9.505-9.505c5.212,0,9.505,4.293,9.505,9.505V97.235z M93.683,93.403h11.345v-6.056
			c0-3.143-2.53-5.673-5.673-5.673c-3.143,0-5.673,2.53-5.673,5.673V93.403z M66.164,66.65c-7.666,0-14.871-2.99-20.314-8.356
			c-5.52-5.442-8.586-12.648-8.586-20.39s2.913-15.025,8.356-20.544c5.442-5.519,12.648-8.509,20.39-8.585h0.154
			c15.868,0,28.822,12.878,28.898,28.746c0.077,7.665-3.066,15.178-8.432,20.62c-5.442,5.442-12.648,8.432-20.314,8.509H66.164z
			 M66.164,12.608H66.01c-6.669,0.077-13.031,2.683-17.707,7.436c-4.676,4.753-7.283,11.115-7.283,17.784
			c0,6.669,2.683,13.031,7.435,17.707c4.753,4.676,10.962,7.282,17.631,7.282h0.154c6.669,0,12.878-2.606,17.63-7.358
			c4.676-4.753,7.359-11.269,7.359-17.937C91.23,23.8,79.962,12.608,66.164,12.608L66.164,12.608z M66.164,12.608"/>
	</g>
</g>
</svg>
