<?xml version="1.0" encoding="iso-8859-1"?>
<!-- Generator: Adobe Illustrator 21.0.0, SVG Export Plug-In . SVG Version: 6.00 Build 0)  -->
<svg version="1.1" id="&#x56FE;&#x5C42;_1" xmlns="http://www.w3.org/2000/svg" xmlns:xlink="http://www.w3.org/1999/xlink" x="0px"
	 y="0px" viewBox="0 0 128 128" style="enable-background:new 0 0 128 128;" xml:space="preserve">
<g>
	<g>
		<path style="fill:#FFFFFF;stroke:#FFFFFF;stroke-width:3.6774;stroke-miterlimit:10;" d="M108.282,2.2H19.718
			C12.694,2.2,7,7.894,7,14.918v94.658c0,1.209,0.508,2.369,1.39,3.204l11.025,11.617c0.883,0.834,2.019,1.269,3.155,1.269
			c0.967,0,1.934-0.302,2.744-0.918l11.061-9.393l11.255,9.526c0.81,0.604,1.777,0.919,2.744,0.919c0.979,0,1.947-0.315,2.768-0.931
			l11.074-9.514l11.074,9.49c0.822,0.616,1.789,0.931,2.768,0.931c0.979,0,1.971-0.315,2.793-0.955l10.893-9.466l10.929,9.284
			c0.822,0.617,1.777,0.919,2.744,0.919c1.136,0,2.273-0.423,3.155-1.257l11.074-11.63c0.87-0.822,1.354-1.97,1.354-3.167V14.918
			C121,7.894,115.306,2.2,108.282,2.2L108.282,2.2z M112.78,107.944l-7.628,6.806l-8.088-6.746l-2.237-1.898
			c-1.813-1.535-4.473-1.524-6.274,0.036l-2.212,1.922l-8.305,7.096l-8.474-7.145l-2.224-1.898c-1.802-1.547-4.461-1.547-6.262,0
			l-2.212,1.91l-8.498,7.181l-8.68-7.217l-2.212-1.874c-1.801-1.523-4.437-1.523-6.226,0.012l-2.2,1.874l-8.197,6.855l-7.628-6.83
			v-93.11c0-2.478,2.019-4.497,4.497-4.497h88.565c2.479,0,4.497,2.019,4.497,4.497V107.944z M112.78,107.944"/>
	</g>
	<g>
		<path style="fill:#FFFFFF;" d="M47.987,59.932v31.279c0,2.696-2.186,4.882-4.882,4.882c-2.696,0-4.882-2.186-4.882-4.882V59.926
			c-1.473-0.219-2.931-0.531-4.365-0.935c-3.193-0.896-5.4-3.806-5.4-7.122v-3.71c0-0.121,0-0.243,0.009-0.364
			c-0.006-0.076-0.009-0.152-0.009-0.228V27.446c0-1.634,1.325-2.959,2.959-2.959h0.591c1.634,0,2.959,1.325,2.959,2.959v20.638
			c0,1.348,1.093,2.441,2.441,2.441s2.441-1.093,2.441-2.441V27.446c0-1.634,1.325-2.959,2.959-2.959h0.592
			c1.634,0,2.959,1.325,2.959,2.959v20.638c0,1.348,1.093,2.441,2.441,2.441c1.348,0,2.441-1.093,2.441-2.441V27.446
			c0-1.634,1.325-2.959,2.959-2.959h0.592c1.634,0,2.959,1.325,2.959,2.959v20.121c0,0.077-0.003,0.154-0.009,0.228l0.009,0.364
			v3.716c0,3.316-2.207,6.227-5.4,7.122C50.899,59.405,49.443,59.716,47.987,59.932L47.987,59.932z"/>
		<path style="fill:#FFFFFF;" d="M89.708,62.432v28.779c0,2.696-2.186,4.882-4.882,4.882s-4.882-2.186-4.882-4.882V62.432
			c-5.69-2.68-9.764-9.912-9.764-18.416c0-10.785,6.557-19.529,14.647-19.529c8.087,0,14.646,8.744,14.646,19.529
			C99.472,52.52,95.395,59.752,89.708,62.432L89.708,62.432z"/>
		<path style="fill:#FFFFFF;" d="M89.708,62.432"/>
		<rect x="28.472" y="24.441" style="fill:none;" width="71.07" height="71.763"/>
	</g>
</g>
</svg>
