<?xml version="1.0" encoding="iso-8859-1"?>
<!-- Generator: Adobe Illustrator 21.0.0, SVG Export Plug-In . SVG Version: 6.00 Build 0)  -->
<svg version="1.1" id="&#x56FE;&#x5C42;_1" xmlns="http://www.w3.org/2000/svg" xmlns:xlink="http://www.w3.org/1999/xlink" x="0px"
	 y="0px" viewBox="0 0 128 128" style="enable-background:new 0 0 128 128;" xml:space="preserve">
<g>
	<g>
		<path style="fill:#FFFFFF;" d="M56.833,69.018c-17.748,0-32.189-14.44-32.189-32.189S39.085,4.641,56.833,4.641
			s32.189,14.44,32.189,32.189S74.582,69.018,56.833,69.018z M56.833,11.863c-13.767,0-24.967,11.2-24.967,24.967
			s11.2,24.967,24.967,24.967S81.8,50.596,81.8,36.829S70.6,11.863,56.833,11.863z"/>
	</g>
	<g>
		<path style="fill:#FFFFFF;" d="M56.576,55.434c-4.175,0-8.126-1.572-11.172-4.454c-1.448-1.372-1.511-3.657-0.139-5.105
			s3.657-1.508,5.104-0.14c1.754,1.661,3.997,2.526,6.467,2.474c2.416-0.066,4.66-1.069,6.319-2.824
			c1.374-1.45,3.659-1.509,5.106-0.141c1.448,1.371,1.511,3.656,0.141,5.104c-2.987,3.156-7.025,4.961-11.369,5.08
			C56.881,55.432,56.729,55.434,56.576,55.434z"/>
	</g>
	<path style="fill:#FFFFFF;" d="M70.224,103.943c0-12.078,6.087-22.727,15.355-29.069c-8.403-5.04-18.234-7.944-28.745-7.944
		c-30.912,0-55.97,25.059-55.97,55.97h74.932C72.285,117.425,70.224,110.93,70.224,103.943z"/>
	<g>
		<defs>
			<rect id="SVGID_1_" x="81.057" y="78.936" width="46.943" height="49.26"/>
		</defs>
		<clipPath id="SVGID_2_">
			<use xlink:href="#SVGID_1_"  style="overflow:visible;"/>
		</clipPath>
		<path style="clip-path:url(#SVGID_2_);fill:#FFFFFF;" d="M126.718,109.26l-3.882-3.948c0.059-0.581,0.086-1.182,0.086-1.789
			c0-0.607-0.026-1.195-0.086-1.789l3.876-3.948c1.175-0.68,1.578-2.179,0.904-3.354l-3.684-6.384
			c-0.68-1.175-2.179-1.578-3.354-0.905l-5.361,1.38c-0.971-0.693-2.007-1.294-3.096-1.79l-1.479-5.321
			c0-1.354-1.103-2.456-2.456-2.456h-7.382c-1.353,0-2.456,1.103-2.456,2.456l-1.479,5.334c-1.096,0.495-2.133,1.103-3.097,1.789
			l-5.361-1.38c-1.175-0.68-2.674-0.271-3.354,0.905l-3.671,6.384c-0.68,1.175-0.27,2.674,0.905,3.354l3.876,3.948
			c-0.059,0.581-0.086,1.182-0.086,1.789c0,0.601,0.026,1.195,0.086,1.789l-3.876,3.948c-1.175,0.68-1.578,2.179-0.905,3.354
			l3.684,6.384c0.68,1.175,2.179,1.578,3.354,0.905l5.361-1.38c0.97,0.693,2.007,1.294,3.096,1.789l1.479,5.335
			c0,1.353,1.103,2.456,2.456,2.456h7.375c1.354,0,2.456-1.103,2.456-2.456l1.479-5.335c1.096-0.495,2.133-1.103,3.096-1.789
			l5.355,1.38c1.175,0.68,2.674,0.271,3.354-0.905l3.684-6.384C128.289,111.446,127.893,109.941,126.718,109.26L126.718,109.26z
			 M104.501,112.126c-4.747,0-8.603-3.856-8.603-8.603c0-4.747,3.856-8.603,8.603-8.603c4.747,0,8.603,3.856,8.603,8.603
			C113.091,108.277,109.248,112.126,104.501,112.126L104.501,112.126z M104.501,112.126"/>
	</g>
</g>
</svg>
