<?xml version="1.0" encoding="iso-8859-1"?>
<!-- Generator: Adobe Illustrator 21.0.0, SVG Export Plug-In . SVG Version: 6.00 Build 0)  -->
<svg version="1.1" id="&#x56FE;&#x5C42;_1" xmlns="http://www.w3.org/2000/svg" xmlns:xlink="http://www.w3.org/1999/xlink" x="0px"
	 y="0px" viewBox="0 0 128 128" style="enable-background:new 0 0 128 128;" xml:space="preserve">
<g>
	<g>
		<defs>
			<rect id="SVGID_1_" y="10.24" width="128" height="117.64"/>
		</defs>
		<clipPath id="SVGID_2_">
			<use xlink:href="#SVGID_1_"  style="overflow:visible;"/>
		</clipPath>
		<path style="clip-path:url(#SVGID_2_);fill:#FFFFFF;" d="M50.567,55.649c-1.207,0.862-1.724,2.272-1.285,3.605l0.047,0.172
			c0.736,2.273,3.683,3.166,5.704,1.724c6.347-4.514,6.347-10.344,6.347-13.478V23.519c0-3.229,2.492-5.407,5.314-6.833
			c1.159-0.549,1.911-1.709,1.928-2.994c0-2.617-2.994-4.248-5.455-3.009c-4.67,2.366-9.184,6.316-9.184,12.867v24.167
			C53.999,50.32,53.952,53.204,50.567,55.649L50.567,55.649z M34.173,55.649c-1.207,0.862-1.709,2.272-1.286,3.605l0.047,0.172
			c0.737,2.273,3.699,3.166,5.705,1.724c6.347-4.514,6.347-10.344,6.347-13.478V23.519c0-3.229,2.492-5.407,5.313-6.833
			c1.16-0.549,1.912-1.709,1.928-2.994c0-2.617-3.009-4.248-5.454-3.009c-4.67,2.366-9.185,6.316-9.185,12.867v24.167
			C37.558,50.32,37.558,53.204,34.173,55.649L34.173,55.649z M16.839,59.457c0.721,2.272,3.684,3.182,5.705,1.724
			c6.347-4.514,6.347-10.344,6.347-13.463V23.519c0-3.229,2.492-5.407,5.329-6.833c1.159-0.549,1.911-1.709,1.928-2.994
			c0-2.617-3.009-4.248-5.454-3.009c-4.686,2.366-9.184,6.316-9.184,12.867v24.167c0,2.618,0,5.533-3.432,7.978
			c-1.207,0.862-1.709,2.272-1.286,3.605L16.839,59.457z M0.022,71.901c0,20.939,14.372,38.79,34.496,45.514v7.256
			c0,1.662,1.348,3.01,3.009,3.01H90.47c1.662,0,3.009-1.348,3.009-3.01v-7.209c20.124-6.74,34.496-24.591,34.496-45.514v-2.272
			c0-1.662-1.347-3.009-3.009-3.009H3.031c-1.661,0-3.009,1.347-3.009,3.009V71.901z M123.304,29.037H75.831
			c-2.601,0-4.702-2.1-4.702-4.702c0-2.602,2.1-4.703,4.702-4.703h47.473c2.601,0,4.702,2.101,4.702,4.703
			C128.006,26.936,125.906,29.037,123.304,29.037L123.304,29.037z M123.304,47.812H75.831c-2.601,0-4.702-2.1-4.702-4.702
			c0-2.602,2.1-4.702,4.702-4.702h47.473c2.601,0,4.702,2.1,4.702,4.702C128.006,45.712,125.906,47.812,123.304,47.812
			L123.304,47.812z M9.567,29.037h-4.89c-2.601,0-4.702-2.1-4.702-4.702c0-2.602,2.1-4.703,4.702-4.703h4.89
			c2.602,0,4.702,2.101,4.702,4.703C14.269,26.936,12.169,29.037,9.567,29.037L9.567,29.037z M9.567,47.812h-4.89
			c-2.601,0-4.702-2.1-4.702-4.702c0-2.602,2.1-4.702,4.702-4.702h4.89c2.602,0,4.702,2.1,4.702,4.702
			C14.269,45.712,12.169,47.812,9.567,47.812L9.567,47.812z M9.567,47.812"/>
	</g>
</g>
</svg>
