<?xml version="1.0" encoding="iso-8859-1"?>
<!-- Generator: Adobe Illustrator 21.0.0, SVG Export Plug-In . SVG Version: 6.00 Build 0)  -->
<svg version="1.1" id="&#x56FE;&#x5C42;_1" xmlns="http://www.w3.org/2000/svg" xmlns:xlink="http://www.w3.org/1999/xlink" x="0px"
	 y="0px" viewBox="0 0 128 128" style="enable-background:new 0 0 128 128;" xml:space="preserve">
<g>
	<path style="fill:#FFFFFF;" d="M36.3,63.789v55.029c0,4.744-3.846,8.589-8.59,8.589c-4.744,0-8.589-3.845-8.589-8.589v-55.04
		c-2.592-0.386-5.156-0.935-7.679-1.644c-5.617-1.576-9.5-6.696-9.5-12.53v-6.528c0-0.214,0-0.427,0.016-0.64
		c-0.01-0.133-0.016-0.268-0.016-0.401V6.636c0-2.876,2.331-5.206,5.206-5.206h1.041c2.875,0,5.206,2.331,5.206,5.206v36.309
		c0,2.372,1.923,4.295,4.295,4.295s4.294-1.923,4.294-4.295V6.636c0-2.876,2.331-5.206,5.206-5.206h1.041
		c2.875,0,5.205,2.331,5.205,5.206v36.309c0,2.372,1.923,4.295,4.295,4.295c2.372,0,4.295-1.923,4.295-4.295V6.636
		c0-2.876,2.331-5.206,5.205-5.206h1.041c2.875,0,5.206,2.331,5.206,5.206v35.398c0,0.135-0.005,0.271-0.016,0.401l0.016,0.64v6.538
		c-0.001,5.834-3.883,10.955-9.501,12.53C41.422,62.862,38.861,63.409,36.3,63.789L36.3,63.789z"/>
	<path style="fill:#FFFFFF;" d="M109.7,68.187v50.631c0,4.744-3.846,8.589-8.59,8.589s-8.589-3.845-8.589-8.589V68.187
		c-10.011-4.716-17.179-17.439-17.179-32.4c0-18.975,11.536-34.358,25.768-34.358c14.227,0,25.768,15.383,25.768,34.358
		C126.878,50.749,119.705,63.472,109.7,68.187L109.7,68.187z"/>
	<path style="fill:#FFFFFF;" d="M109.7,68.187"/>
	<rect x="1.967" y="1.349" style="fill:none;" width="125.033" height="126.253"/>
</g>
</svg>
