<?xml version="1.0" encoding="iso-8859-1"?>
<!-- Generator: Adobe Illustrator 21.0.0, SVG Export Plug-In . SVG Version: 6.00 Build 0)  -->
<svg version="1.1" id="&#x56FE;&#x5C42;_1" xmlns="http://www.w3.org/2000/svg" xmlns:xlink="http://www.w3.org/1999/xlink" x="0px"
	 y="0px" viewBox="0 0 128 128" style="enable-background:new 0 0 128 128;" xml:space="preserve">
<g>
	<g>
		<path style="fill:#FFFFFF;" d="M29.766,77.372V92.76c-0.012,1.306,0.501,2.562,1.425,3.485c0.923,0.923,2.179,1.437,3.485,1.425
			h15.388c2.561-0.022,5.01-1.051,6.819-2.864l37.526-37.594c3.82-3.832,3.82-10.033,0-13.865l-10.32-10.388
			c-3.832-3.82-10.032-3.82-13.865,0L32.63,70.554C30.817,72.362,29.788,74.812,29.766,77.372L29.766,77.372z M29.766,77.372"/>
	</g>
	<g>
		<path style="fill:none;stroke:#FFFFFF;stroke-width:7.721;stroke-miterlimit:10;" d="M92.311,16.53l8.12-8.12
			c3.53-3.53,7.059-3.53,10.589,0l7.948,7.948c3.53,3.529,3.53,7.059,0,10.589l-8.12,8.12c-3.53,3.53-7.059,3.53-10.589,0
			l-7.948-7.947C88.781,23.589,88.781,20.059,92.311,16.53L92.311,16.53z M92.311,16.53"/>
	</g>
	<g>
		<path style="fill:#FFFFFF;" d="M106.205,127.377H21.06c-11.631-0.012-21.057-9.439-21.07-21.07V21.162
			C0.003,9.531,9.429,0.104,21.06,0.092h45.686c2.476-0.144,4.829,1.094,6.111,3.218c1.282,2.124,1.282,4.783,0,6.907
			c-1.281,2.124-3.634,3.363-6.111,3.218H21.06c-4.268,0-7.728,3.46-7.728,7.728v85.145c0,4.268,3.46,7.728,7.728,7.728h85.145
			c4.268,0,7.728-3.461,7.728-7.728V79.032c0.206-3.533,3.131-6.293,6.671-6.293c3.54,0,6.465,2.759,6.671,6.293v27.275
			C127.263,117.938,117.837,127.365,106.205,127.377L106.205,127.377z M106.205,127.377"/>
	</g>
	<rect x="0.009" style="fill:none;" width="127.396" height="127.533"/>
</g>
</svg>
