<?xml version="1.0" encoding="iso-8859-1"?>
<!-- Generator: Adobe Illustrator 21.0.0, SVG Export Plug-In . SVG Version: 6.00 Build 0)  -->
<svg version="1.1" id="&#x56FE;&#x5C42;_1" xmlns="http://www.w3.org/2000/svg" xmlns:xlink="http://www.w3.org/1999/xlink" x="0px"
	 y="0px" viewBox="0 0 128 128" style="enable-background:new 0 0 128 128;" xml:space="preserve">
<g>
	<path style="fill:#FFFFFF;" d="M20.696,128.22H5.304c-1.267,0-2.304-1.037-2.304-2.304V50.443c0-5.368,4.392-9.76,9.76-9.76h0.48
		c5.368,0,9.76,4.392,9.76,9.76v75.473C23,127.183,21.963,128.22,20.696,128.22z"/>
	<path style="fill:#FFFFFF;" d="M55.696,128.22H40.304c-1.267,0-2.304-1.037-2.304-2.304V10.48c0-5.368,4.392-9.76,9.76-9.76h0.48
		c5.368,0,9.76,4.392,9.76,9.76v115.436C58,127.183,56.963,128.22,55.696,128.22z"/>
	<path style="fill:#FFFFFF;" d="M90.696,128.22H75.304c-1.267,0-2.304-1.037-2.304-2.304V82.793c0-5.368,4.392-9.76,9.76-9.76h0.48
		c5.368,0,9.76,4.392,9.76,9.76v43.122C93,127.183,91.963,128.22,90.696,128.22z"/>
	<path style="fill:#FFFFFF;" d="M125.696,128.22h-15.391c-1.267,0-2.304-1.037-2.304-2.304V65.667c0-5.368,4.392-9.76,9.76-9.76
		h0.48c5.368,0,9.76,4.392,9.76,9.76v60.249C128,127.183,126.963,128.22,125.696,128.22z"/>
</g>
</svg>
