<?xml version="1.0" encoding="iso-8859-1"?>
<!-- Generator: Adobe Illustrator 21.0.0, SVG Export Plug-In . SVG Version: 6.00 Build 0)  -->
<svg version="1.1" id="&#x56FE;&#x5C42;_1" xmlns="http://www.w3.org/2000/svg" xmlns:xlink="http://www.w3.org/1999/xlink" x="0px"
	 y="0px" viewBox="0 0 128 128" style="enable-background:new 0 0 128 128;" xml:space="preserve">
<g>
	<path style="fill:none;stroke:#FFFFFF;stroke-width:8.7311;stroke-miterlimit:10;" d="M72.225,55.789V30.826
		c-0.067-5.424,1.633-10.723,4.846-15.095c3.283-4.644,8.116-7.963,13.629-9.36c8.506-2.461,17.679-0.163,24.02,6.019
		c3.835,3.491,6.402,8.158,7.297,13.266c1.338,6.725-0.13,13.705-4.064,19.321c-3.934,5.617-9.992,9.382-16.769,10.423
		c-1.438,0.238-2.892,0.358-4.349,0.36c-8.028,0.025-16.045,0-24.073,0L72.225,55.789z"/>
	<path style="fill:#FFFFFF;" d="M59.758,59.729H31.072c-13.754,0.1-25.729-9.375-28.795-22.783
		C-0.081,26.499,3.5,15.602,11.596,8.589C22.85-1.157,39.665-0.764,50.451,9.497c4.775,4.465,7.913,10.403,8.911,16.863
		c0.251,1.492,0.382,3.002,0.392,4.516c0.029,9.456,0,18.901,0,28.357L59.758,59.729z"/>
	<path style="fill:#FFFFFF;" d="M59.758,68.252v28.745c0.117,7.316-2.576,14.4-7.523,19.792c-4.284,4.914-10.153,8.175-16.589,9.215
		c-9.552,1.788-19.353-1.445-25.966-8.565c-3.897-3.903-6.524-8.892-7.536-14.314c-1.911-8.778,0.485-17.94,6.449-24.658
		c4.385-5.127,10.429-8.555,17.08-9.685c1.863-0.344,3.754-0.516,5.649-0.513h27.811L59.758,68.252z"/>
	<path style="fill:#FFFFFF;" d="M68.293,68.586h28.932c5.751-0.076,11.396,1.553,16.222,4.683c5.934,3.72,10.22,9.568,11.981,16.347
		c2.032,7.497,0.993,15.495-2.885,22.226c-3.878,6.73-10.277,11.639-17.782,13.642c-3.144,0.872-6.422,1.154-9.669,0.833
		c-10.433-0.786-19.62-7.164-24.004-16.664c-1.463-2.96-2.364-6.167-2.658-9.456c-0.099-1.044-0.145-2.092-0.138-3.141
		c-0.014-9.323-0.014-18.65,0-27.982v-0.5V68.586z"/>
	<path style="fill:#FFFFFF;" d="M68.293,68.586"/>
	<rect x="1.5" y="1.36" style="fill:none;" width="125" height="125.281"/>
</g>
</svg>
