<?xml version="1.0" encoding="iso-8859-1"?>
<!-- Generator: Adobe Illustrator 21.0.0, SVG Export Plug-In . SVG Version: 6.00 Build 0)  -->
<svg version="1.1" id="&#x56FE;&#x5C42;_1" xmlns="http://www.w3.org/2000/svg" xmlns:xlink="http://www.w3.org/1999/xlink" x="0px"
	 y="0px" viewBox="0 0 128 128" style="enable-background:new 0 0 128 128;" xml:space="preserve">
<g>
	<g>
		<defs>
			<rect id="SVGID_1_" y="8.774" width="128" height="113.146"/>
		</defs>
		<clipPath id="SVGID_2_">
			<use xlink:href="#SVGID_1_"  style="overflow:visible;"/>
		</clipPath>
		<path style="clip-path:url(#SVGID_2_);fill:#FFFFFF;" d="M46.503,80.122c-0.587,0.301-1.189,0.444-1.919,0.444
			c-1.633,0-2.965-0.888-3.71-2.221l-0.301-0.587L28.87,52.262c-0.143-0.301-0.143-0.587-0.143-0.888
			c0-1.189,0.888-2.077,2.077-2.077c0.444,0,0.888,0.143,1.333,0.444l13.779,9.784c1.032,0.587,2.221,1.031,3.552,1.031
			c0.745,0,1.476-0.143,2.221-0.444l64.616-28.748C104.745,17.727,85.636,8.831,63.993,8.831c-35.266,0-64.014,23.864-64.014,53.343
			c0,16,8.594,30.524,22.074,40.307c1.031,0.745,1.776,2.077,1.776,3.409c0,0.444-0.143,0.888-0.301,1.332
			c-1.031,3.996-2.821,10.528-2.821,10.815c-0.143,0.443-0.302,1.031-0.302,1.632c0,1.189,0.888,2.077,2.077,2.077
			c0.444,0,0.888-0.143,1.189-0.444l13.923-8.15c1.032-0.588,2.221-1.032,3.41-1.032c0.587,0,1.332,0.143,1.919,0.301
			c6.517,1.92,13.637,2.965,20.899,2.965c35.266,0,64.014-23.864,64.014-53.343c0-8.895-2.664-17.332-7.262-24.752L46.947,79.822
			L46.503,80.122z M46.503,80.122"/>
	</g>
</g>
</svg>
